<svg id="Layer_1" data-name="Layer 1" xmlns="http://www.w3.org/2000/svg" xmlns:xlink="http://www.w3.org/1999/xlink" viewBox="0 0 412.45 196.42"><defs><style>.cls-1{fill:#b34343;}.cls-2{fill:#e95453;}.cls-3{fill:#d24444;}.cls-4{fill:#be3c3d;}.cls-5{fill:#e54a4a;}.cls-6{fill:#0d0d0d;}.cls-7{fill:url(#linear-gradient);}</style><linearGradient id="linear-gradient" x1="211.6" y1="255.69" x2="210.37" y2="313.97" gradientUnits="userSpaceOnUse"><stop offset="0" stop-color="#d24444"/><stop offset="1" stop-color="#e95453"/></linearGradient></defs><path class="cls-1" d="M266.12,244.74c-13.66,46.28-32,77.11-43.82,75.13C210.92,318,204,285.59,204.3,244" transform="translate(-23.84 -123.54)"/><path class="cls-2" d="M24.51,150.48c6.94-6.79,65.68,17.87,70.75,61.77,5.68,49.16-60,86.77-67.65,80.86-5.93-4.62,25.28-34.46,21.09-79.68C45.18,175.44,19.37,155.51,24.51,150.48Z" transform="translate(-23.84 -123.54)"/><path class="cls-3" d="M287.87,142.67c-121.28,0-219.6,35.31-219.6,78.87s98.32,78.88,219.6,78.88" transform="translate(-23.84 -123.54)"/><ellipse class="cls-4" cx="264.03" cy="98.01" rx="45.12" ry="78.88"/><path class="cls-5" d="M293.26,142.67c79,0,143,35.31,143,78.87s-64,78.88-143,78.88" transform="translate(-23.84 -123.54)"/><ellipse class="cls-5" cx="269.43" cy="98.01" rx="45.12" ry="78.88"/><ellipse class="cls-6" cx="307.2" cy="78.87" rx="21.91" ry="20.74"/><path class="cls-2" d="M275.66,142.79c.83-6.17-14.61-12.9-16.51-13.73C191.73,99.67,69,196.91,72,202.22c1.66,2.91,37.54-28,108.45-42.25C230.65,149.87,274.28,152.91,275.66,142.79Z" transform="translate(-23.84 -123.54)"/><path class="cls-7" d="M242.75,244.74c-13.66,46.28-32,77.11-43.83,75.13-11.37-1.91-18.25-34.28-18-75.91" transform="translate(-23.84 -123.54)"/></svg>